<svg width="60" height="60" viewBox="0 0 60 60" fill="none" xmlns="http://www.w3.org/2000/svg">
<g clip-path="url(#clip0_141_44)">
<path d="M52.2626 4.32525C52.5897 4.29011 52.9207 4.32247 53.2343 4.42193C53.5479 4.52142 53.8378 4.68512 54.0849 4.9024C54.3497 5.0977 54.5714 5.3465 54.7353 5.63189C54.899 5.91719 55.0019 6.23352 55.037 6.5606C55.0722 6.8877 55.0388 7.21869 54.9394 7.53228C54.8399 7.84589 54.6762 8.13579 54.4589 8.38287C54.4589 8.38287 51.8494 11.8649 50.0097 13.9551C48.431 15.7488 45.7822 18.378 45.7822 18.378C47.079 20.4372 47.7722 22.8195 47.7822 25.253C47.7985 26.8989 47.4856 28.5319 46.8632 30.0557C46.2408 31.5795 45.3212 32.9642 44.1572 34.128L40.4072 37.753C40.1847 37.9954 39.9135 38.1889 39.6122 38.3213C39.3112 38.4536 38.986 38.5215 38.6572 38.5215C38.3281 38.5215 38.0023 38.4537 37.7011 38.3213C37.5023 38.2339 37.3184 38.1177 37.1513 37.9805C37.3167 38.1587 37.4515 38.3642 37.5478 38.5889C37.6779 38.8926 37.7354 39.2229 37.7157 39.5528C37.7062 40.212 37.4367 40.8413 36.9657 41.3028L33.2157 45.0528C30.8417 47.3695 27.6579 48.67 24.3407 48.6778C21.6943 48.6787 19.1143 47.8478 16.9657 46.3028C16.9362 46.3276 14.3053 48.5402 12.8359 50.1758C11.4557 51.7121 9.63076 54.3753 9.61418 54.3995C9.46374 54.6921 9.25345 54.9499 8.99797 55.1573C8.74258 55.3645 8.44699 55.5166 8.12981 55.6036C7.81243 55.6906 7.47977 55.7112 7.15422 55.6631C6.82875 55.615 6.51681 55.4993 6.23821 55.3243C5.9457 55.1739 5.68769 54.9644 5.48039 54.709C5.27303 54.4535 5.1211 54.1573 5.0341 53.8399C4.94716 53.5226 4.92645 53.1908 4.97453 52.8653C5.02263 52.5397 5.13836 52.2279 5.3134 51.9493C5.32556 51.9318 7.43349 48.9044 8.99797 47.1377C10.6468 45.2759 13.5596 42.7053 13.5907 42.6778C12.0866 40.658 11.2952 38.1957 11.3407 35.6778C11.3503 34.0429 11.6869 32.4257 12.331 30.9229C12.975 29.4203 13.9136 28.0621 15.0907 26.9278L18.8407 23.1778C19.0632 22.9353 19.3335 22.7409 19.6347 22.6085C19.9359 22.476 20.2617 22.4083 20.5907 22.4083C20.9198 22.4083 21.2455 22.476 21.5468 22.6085C21.7459 22.696 21.9294 22.8129 22.0966 22.9502C21.9309 22.7719 21.7965 22.5658 21.7001 22.3409C21.5701 22.0373 21.5125 21.7077 21.5322 21.378C21.5415 20.7186 21.8111 20.0896 22.2822 19.628L26.0322 15.878C28.1591 13.7791 30.9672 12.5112 33.9482 12.3047C36.9293 12.0984 39.8862 12.9672 42.2822 14.753C42.2822 14.753 44.938 12.169 46.5097 10.3926C48.2054 8.47605 50.6044 5.27642 50.6044 5.27642C50.7997 5.01158 51.0485 4.79086 51.3339 4.62701C51.6193 4.46316 51.9354 4.3604 52.2626 4.32525ZM18.5907 30.4278C17.1778 31.8125 16.3689 33.6996 16.3407 35.6778C16.3885 37.6884 17.1918 39.6078 18.5907 41.0528L19.0907 41.5528C20.5138 42.9348 22.4196 43.708 24.4032 43.7081C26.3869 43.7081 28.2927 42.9348 29.7157 41.5528L31.5907 39.5528L20.5907 28.4278L18.5907 30.4278ZM34.8447 17.2432C33.8528 17.2432 32.8707 17.4429 31.9579 17.8311C31.0451 18.2194 30.2202 18.7884 29.5322 19.503L27.5322 21.378L38.6572 32.503L40.6572 30.503C41.3398 29.8112 41.8784 28.9908 42.2431 28.0899C42.6077 27.189 42.7913 26.2248 42.7822 25.253C42.7807 23.2569 42.0209 21.3355 40.6572 19.878L40.1572 19.503C39.4691 18.7884 38.6432 18.2194 37.7304 17.8311C36.8178 17.443 35.8363 17.2433 34.8447 17.2432Z" fill="black"/>
</g>
<defs>
<clipPath id="clip0_141_44">
<rect width="60" height="60" fill="white"/>
</clipPath>
</defs>
</svg>
