<svg width="60" height="60" viewBox="0 0 60 60" fill="none" xmlns="http://www.w3.org/2000/svg">
<path d="M26.1768 24.0059C26.777 24.0485 27.342 24.3069 27.7676 24.7324C28.1929 25.1579 28.4504 25.7222 28.4932 26.3223C28.5358 26.9225 28.3611 27.5186 28 28L23.75 32.25L27.75 36.25L32 32C32.4814 31.639 33.0766 31.4633 33.6768 31.5059C34.277 31.5485 34.842 31.8069 35.2676 32.2324C35.6929 32.6579 35.9504 33.2222 35.9932 33.8223C36.0358 34.4225 35.8611 35.0186 35.5 35.5L31.25 39.75L33.25 41.75C33.5024 41.9632 33.7019 42.2324 33.832 42.5361C33.9622 42.8399 34.0197 43.1701 34 43.5C33.9905 44.1593 33.721 44.7885 33.25 45.25L29.5 49C27.1259 51.3168 23.9422 52.6172 20.625 52.625C17.9786 52.6259 15.3986 51.795 13.25 50.25L9.25 54.25C9.02761 54.4924 8.75716 54.6859 8.45605 54.8184C8.15486 54.9508 7.82902 55.0195 7.5 55.0195C7.17092 55.0195 6.8452 54.9508 6.54395 54.8184C6.24279 54.686 5.97244 54.4924 5.75 54.25C5.50766 54.0276 5.31407 53.7571 5.18164 53.4561C5.04923 53.1549 4.9805 52.829 4.98047 52.5C4.98047 52.1709 5.0492 51.8452 5.18164 51.5439C5.31407 51.2427 5.50756 50.9724 5.75 50.75L9.875 46.625C8.37081 44.6052 7.57945 42.143 7.625 39.625C7.63452 37.9901 7.97119 36.3729 8.61523 34.8701C9.25927 33.3675 10.1978 32.0093 11.375 30.875L15.125 27.125C15.3474 26.8826 15.6178 26.6891 15.9189 26.5566C16.2202 26.4242 16.5459 26.3555 16.875 26.3555C17.204 26.3555 17.5299 26.4242 17.8311 26.5566C18.1321 26.6891 18.4026 26.8827 18.625 27.125L20.25 28.75L24.5 24.5C24.9814 24.139 25.5766 23.9633 26.1768 24.0059ZM14.875 34.375C13.4619 35.7597 12.6532 37.6467 12.625 39.625C12.6727 41.6357 13.476 43.5549 14.875 45L15.375 45.5C16.798 46.882 18.7038 47.6553 20.6875 47.6553C22.6712 47.6552 24.577 46.8821 26 45.5L27.875 43.5L16.875 32.375L14.875 34.375ZM52.5 4.98047C52.829 4.98049 53.1548 5.04922 53.4561 5.18164C53.7571 5.31407 54.0276 5.50763 54.25 5.75C54.4924 5.97244 54.686 6.24278 54.8184 6.54395C54.9508 6.8452 55.0195 7.17092 55.0195 7.5C55.0195 7.82902 54.9508 8.15486 54.8184 8.45605C54.6859 8.75716 54.4924 9.02761 54.25 9.25L50 13.625C51.297 15.6842 51.99 18.0664 52 20.5C52.0164 22.146 51.7045 23.7789 51.082 25.3027C50.4596 26.8267 49.5391 28.2111 48.375 29.375L44.625 33C44.4026 33.2424 44.1322 33.4359 43.8311 33.5684C43.5298 33.7008 43.204 33.7695 42.875 33.7695C42.5459 33.7695 42.2202 33.7008 41.9189 33.5684C41.6178 33.436 41.3474 33.2424 41.125 33L26.5 18.375C26.2476 18.1618 26.0482 17.8925 25.918 17.5889C25.7878 17.2851 25.7303 16.9549 25.75 16.625C25.7594 15.9656 26.029 15.3366 26.5 14.875L30.25 11.125C32.3769 9.02619 35.1851 7.75823 38.166 7.55176C41.1471 7.34537 44.1041 8.21422 46.5 10L50.75 5.75C50.9724 5.50758 51.2428 5.31408 51.5439 5.18164C51.8452 5.0492 52.1709 4.98047 52.5 4.98047ZM39.0625 12.4902C38.0705 12.4902 37.0886 12.6909 36.1758 13.0791C35.2631 13.4673 34.438 14.0355 33.75 14.75L31.75 16.625L42.875 27.75L44.875 25.75C45.5577 25.0581 46.0972 24.2379 46.4619 23.3369C46.8265 22.436 47.0092 21.4718 47 20.5C46.9985 18.5038 46.2389 16.5826 44.875 15.125L44.375 14.75C43.6871 14.0356 42.8619 13.4673 41.9492 13.0791C41.0364 12.6909 40.0544 12.4903 39.0625 12.4902Z" fill="black"/>
</svg>
